<svg width="1768" height="865" viewBox="0 0 1768 865" fill="none" xmlns="http://www.w3.org/2000/svg">
<path d="M1698.19 342.748L1698.55 338.222L1694.02 337.871L1693.67 342.397L1698.19 342.748Z" fill="white"/>
<path d="M1248.8 612.212C1249.2 492.599 1349.14 378.833 1482.19 378.833C1615.24 378.833 1715.58 483.312 1715.58 612.212C1715.58 741.112 1611.1 845.591 1482.19 845.591C1479.35 845.591 1473.71 845.72 1465.94 845.29C1465.94 845.29 1437.32 843.627 1408.79 833.81" stroke="white" stroke-width="0.476302" stroke-miterlimit="10"/>
<path d="M1248.8 612.212C1249.2 492.599 1349.14 378.833 1482.19 378.833C1615.24 378.833 1715.58 483.312 1715.58 612.212C1715.58 741.112 1611.1 845.591 1482.19 845.591C1479.35 845.591 1473.71 845.72 1465.94 845.29C1465.94 845.29 1437.32 843.627 1408.79 833.81" stroke="white" stroke-width="0.476302" stroke-miterlimit="10"/>
<path d="M1381.21 193.551C1381.21 300.085 1467.58 386.454 1574.11 386.454C1687.89 386.454 1765.98 285.116 1767.01 193.551C1767.94 110.053 1704.57 54.4825 1697.3 48.3112C1688.35 40.7047 1639.64 0.778092 1574.11 0.648926C1571.94 0.648926 1570.15 0.677612 1568.92 0.720667C1509.11 2.53873 1456.64 27.0745 1422.92 74.3762" stroke="white" stroke-width="0.476302" stroke-miterlimit="10"/>
<path d="M1251.66 455.036C1332.55 455.698 1398.67 390.117 1399.31 308.571C1399.97 227.026 1334.91 160.381 1254.01 159.734" stroke="white" stroke-width="0.476302" stroke-miterlimit="10"/>
<path d="M0 455L1252 455" stroke="white" stroke-width="0.476302" stroke-miterlimit="10"/>
<path d="M1248.8 612.221L1248.8 864.661" stroke="white" stroke-width="0.476302" stroke-miterlimit="10"/>
<path d="M1181.15 451.637L1177.94 454.847L1181.15 458.057L1184.36 454.847L1181.15 451.637Z" fill="white"/>
<mask id="mask0_1339_47" style="mask-type:luminance" maskUnits="userSpaceOnUse" x="1270" y="390" width="438" height="439">
<path d="M1489.2 828.447C1609.79 828.447 1707.54 730.466 1707.54 609.6C1707.54 488.733 1609.79 390.752 1489.2 390.752C1368.61 390.752 1270.85 488.733 1270.85 609.6C1270.85 730.466 1368.61 828.447 1489.2 828.447Z" fill="white"/>
</mask>
<g mask="url(#mask0_1339_47)">
<path d="M1656.71 520.349C1618.27 456.558 1554.28 420.437 1510.82 416.605C1481.11 413.97 1456.24 422.451 1456.24 422.451C1448.13 425.223 1436.83 429.115 1424.96 438.581C1406.92 452.968 1394.92 474.353 1388.47 501.993C1387.14 507.673 1386.31 513.519 1384.73 519.259V418.952H1270.13L1379 557.379H1270.13V830.583L1382.56 564.376V830.583H1602.01L1398.52 564.134C1407.89 572.948 1417.17 581.884 1426.64 590.547C1461.52 622.473 1497.42 652.673 1536.58 677.253C1558.48 690.99 1581.05 702.803 1605.56 708.891C1616.19 711.527 1626.93 712.708 1637.73 711.103C1640.76 710.648 1650.14 708.498 1658.77 702.849C1677.26 690.732 1682.37 668.363 1684.76 657.913C1691.54 628.198 1689.2 574.266 1656.7 520.349H1656.71ZM1511.65 579.415C1505.61 580.46 1499.2 579.976 1493.16 579.385C1459.36 573.251 1428.85 555.956 1396.68 542.734C1435.5 533.51 1481.39 529.164 1516.23 555.107C1526.97 562.801 1523.88 577.068 1511.65 579.415Z" fill="#FF3B2A"/>
</g>
<mask id="mask1_1339_47" style="mask-type:luminance" maskUnits="userSpaceOnUse" x="1125" y="180" width="255" height="254">
<path d="M1252.54 433.921C1322.73 433.921 1379.62 377.12 1379.62 307.052C1379.62 236.985 1322.73 180.184 1252.54 180.184C1182.35 180.184 1125.45 236.985 1125.45 307.052C1125.45 377.12 1182.35 433.921 1252.54 433.921Z" fill="white"/>
</mask>
<g mask="url(#mask1_1339_47)">
<path d="M1378.9 400.733V316.899C1366.15 332.66 1357.57 339.514 1353.16 337.434C1345.45 333.814 1350.52 279.934 1368.35 214.882C1371.46 203.525 1359.83 193.821 1349.11 198.737C1345.59 200.347 1341.85 201.872 1337.9 203.269C1315.19 211.206 1256.83 215.737 1252.02 205.534C1250.25 201.772 1251.75 194.647 1266.63 179.913H1168.8C1146.3 179.913 1127.15 196.457 1124.15 218.716C1124.15 218.801 1124.12 218.887 1124.12 218.972C1122.01 235.061 1126.08 249.126 1137.98 260.426C1145.97 268.021 1156.74 273.878 1174.94 277.312C1180.75 278.41 1204.64 282.528 1239.12 275.631C1271.04 269.232 1294.72 256.863 1311.16 248.271C1320.01 243.639 1327.18 239.393 1332.13 236.343L1141.89 417.291C1134.6 424.231 1139.52 436.515 1149.6 436.515H1251.47L1337.16 248.342C1333.6 257.861 1328.52 272.253 1323.41 290.052C1308.41 342.25 1294.49 390.686 1315.8 410.864C1326.48 420.968 1342.28 420.455 1344.35 420.369C1364.35 419.443 1376.74 403.625 1378.91 400.747L1378.9 400.733Z" fill="#FF3B2A"/>
</g>
<mask id="mask2_1339_47" style="mask-type:luminance" maskUnits="userSpaceOnUse" x="1396" y="14" width="357" height="357">
<path d="M1574.17 370.486C1672.39 370.486 1752 290.867 1752 192.652C1752 94.4366 1672.39 14.8174 1574.17 14.8174C1475.96 14.8174 1396.34 94.4366 1396.34 192.652C1396.34 290.867 1475.96 370.486 1574.17 370.486Z" fill="white"/>
</mask>
<g mask="url(#mask2_1339_47)">
<path d="M1404.52 261.033L1532.59 241.298L1426.01 349.252C1418.12 357.245 1404.52 351.652 1404.52 340.435V261.033Z" fill="#FF3B2A"/>
<path d="M1481.96 14.0676L1672.2 14.0676C1677.15 14.0676 1678.62 20.8007 1674.12 22.8701C1566.85 72.2661 1494.54 116.309 1511.86 200.974C1514.19 212.371 1518.91 226.482 1532.08 241.703C1478.93 243.937 1423.09 213.121 1404.01 165.854C1385.3 119.518 1403.43 65.0531 1441.79 29.6182C1452.7 19.5411 1467.1 14.0676 1481.96 14.0676Z" fill="#FF3B2A"/>
<path d="M1752.81 63.8684V207.947L1531.39 241.883L1718.22 49.8174C1730.83 36.8461 1752.81 45.7835 1752.81 63.8684Z" fill="#FF3B2A"/>
<path d="M1474.22 371.071H1727.25C1742.32 371.071 1754.16 357.86 1752.17 342.924C1752.17 342.849 1752.15 342.774 1752.14 342.684C1745.12 291.954 1655.24 253.235 1530.71 241.328C1535.93 247.731 1560.06 268.065 1554.99 301.956C1549.82 336.431 1516.36 362.958 1474.22 371.056V371.071Z" fill="#FF3B2A"/>
</g>
</svg>
