<svg width="1920" height="915" viewBox="0 0 1920 915" fill="none" xmlns="http://www.w3.org/2000/svg">
<path d="M1697.62 840.232L1697.91 835.702L1693.38 835.414L1693.09 839.945L1697.62 840.232Z" fill="white"/>
<path d="M1462.92 882.349L1467 887.487L1469.41 881.373L1462.92 882.349Z" fill="white"/>
<path d="M1310.66 210.217L1316.38 213.544V206.876L1310.66 210.217Z" fill="white"/>
<path d="M1462.92 882.349L1467 887.487L1469.41 881.373L1462.92 882.349Z" fill="white"/>
<path d="M1757.19 392.748L1757.55 388.222L1753.02 387.871L1752.67 392.397L1757.19 392.748Z" fill="white"/>
<path d="M1308 662C1308.4 542.387 1408.14 428.833 1541.19 428.833C1674.24 428.833 1774.58 533.312 1774.58 662.212C1774.58 791.112 1670.1 895.591 1541.19 895.591C1538.35 895.591 1532.71 895.72 1524.94 895.29C1524.94 895.29 1496.32 893.627 1467.79 883.81" stroke="white" stroke-width="0.476302" stroke-miterlimit="10"/>
<path d="M1308 662C1308.4 542.387 1408.14 428.833 1541.19 428.833C1674.24 428.833 1774.58 533.312 1774.58 662.212C1774.58 791.112 1670.1 895.591 1541.19 895.591C1538.35 895.591 1532.71 895.72 1524.94 895.29C1524.94 895.29 1496.32 893.627 1467.79 883.81" stroke="white" stroke-width="0.476302" stroke-miterlimit="10"/>
<path d="M1440 244C1440 350.533 1526.58 436.454 1633.11 436.454C1746.89 436.454 1824.98 335.116 1826.01 243.551C1826.94 160.053 1763.57 104.482 1756.3 98.3112C1747.35 90.7047 1698.64 50.7781 1633.11 50.6489C1630.94 50.6489 1629.15 50.6776 1627.92 50.7207C1568.11 52.5387 1515.64 77.0745 1481.92 124.376" stroke="white" stroke-width="0.476302" stroke-miterlimit="10"/>
<path d="M1310.66 505.036C1391.55 505.698 1457.67 440.117 1458.31 358.571C1458.97 277.026 1393.91 210.381 1313.01 209.734" stroke="white" stroke-width="0.476302" stroke-miterlimit="10"/>
<path d="M59 505L1311 505" stroke="white" stroke-width="0.476302" stroke-miterlimit="10"/>
<path d="M1240.15 501.637L1236.94 504.847L1240.15 508.057L1243.36 504.847L1240.15 501.637Z" fill="white"/>
<mask id="mask0_1495_643" style="mask-type:luminance" maskUnits="userSpaceOnUse" x="1329" y="440" width="438" height="439">
<path d="M1548.2 878.447C1668.79 878.447 1766.54 780.466 1766.54 659.6C1766.54 538.733 1668.79 440.752 1548.2 440.752C1427.61 440.752 1329.85 538.733 1329.85 659.6C1329.85 780.466 1427.61 878.447 1548.2 878.447Z" fill="white"/>
</mask>
<g mask="url(#mask0_1495_643)">
<path d="M1715.71 570.349C1677.27 506.558 1613.28 470.437 1569.82 466.605C1540.11 463.97 1515.24 472.451 1515.24 472.451C1507.13 475.223 1495.83 479.115 1483.96 488.581C1465.92 502.968 1453.92 524.353 1447.47 551.993C1446.14 557.673 1445.31 563.519 1443.73 569.259V468.952H1329.13L1438 607.379H1329.13V880.583L1441.56 614.376V880.583H1661.01L1457.52 614.134C1466.89 622.948 1476.17 631.884 1485.64 640.547C1520.52 672.473 1556.42 702.673 1595.58 727.253C1617.48 740.99 1640.05 752.803 1664.56 758.891C1675.19 761.527 1685.93 762.708 1696.73 761.103C1699.76 760.648 1709.14 758.498 1717.77 752.849C1736.26 740.732 1741.37 718.363 1743.76 707.913C1750.54 678.198 1748.2 624.266 1715.7 570.349H1715.71ZM1570.65 629.415C1564.61 630.46 1558.2 629.976 1552.16 629.385C1518.36 623.251 1487.85 605.956 1455.68 592.734C1494.5 583.51 1540.39 579.164 1575.23 605.107C1585.97 612.801 1582.88 627.068 1570.65 629.415Z" fill="#FF3B2A"/>
</g>
<mask id="mask1_1495_643" style="mask-type:luminance" maskUnits="userSpaceOnUse" x="1184" y="230" width="255" height="254">
<path d="M1311.54 483.921C1381.73 483.921 1438.62 427.12 1438.62 357.052C1438.62 286.985 1381.73 230.184 1311.54 230.184C1241.35 230.184 1184.45 286.985 1184.45 357.052C1184.45 427.12 1241.35 483.921 1311.54 483.921Z" fill="white"/>
</mask>
<g mask="url(#mask1_1495_643)">
<path d="M1437.9 450.733V366.899C1425.15 382.66 1416.57 389.514 1412.16 387.434C1404.45 383.814 1409.52 329.934 1427.35 264.882C1430.46 253.525 1418.83 243.821 1408.11 248.737C1404.59 250.347 1400.85 251.872 1396.9 253.269C1374.19 261.206 1315.83 265.737 1311.02 255.534C1309.25 251.772 1310.75 244.647 1325.63 229.913H1227.8C1205.3 229.913 1186.15 246.457 1183.15 268.716C1183.15 268.801 1183.12 268.887 1183.12 268.972C1181.01 285.061 1185.08 299.126 1196.98 310.426C1204.97 318.021 1215.74 323.878 1233.94 327.312C1239.75 328.41 1263.64 332.528 1298.12 325.631C1330.04 319.232 1353.72 306.863 1370.16 298.271C1379.01 293.639 1386.18 289.393 1391.13 286.343L1200.89 467.291C1193.6 474.231 1198.52 486.515 1208.6 486.515H1310.47L1396.16 298.342C1392.6 307.861 1387.52 322.253 1382.41 340.052C1367.41 392.25 1353.49 440.686 1374.8 460.864C1385.48 470.968 1401.28 470.455 1403.35 470.369C1423.35 469.443 1435.74 453.625 1437.91 450.747L1437.9 450.733Z" fill="#FF3B2A"/>
</g>
<mask id="mask2_1495_643" style="mask-type:luminance" maskUnits="userSpaceOnUse" x="1455" y="64" width="357" height="357">
<path d="M1633.17 420.486C1731.39 420.486 1811 340.867 1811 242.652C1811 144.437 1731.39 64.8174 1633.17 64.8174C1534.96 64.8174 1455.34 144.437 1455.34 242.652C1455.34 340.867 1534.96 420.486 1633.17 420.486Z" fill="white"/>
</mask>
<g mask="url(#mask2_1495_643)">
<path d="M1463.52 311.033L1591.59 291.298L1485.01 399.252C1477.12 407.245 1463.52 401.652 1463.52 390.435V311.033Z" fill="#FF3B2A"/>
<path d="M1540.96 64.0676L1731.2 64.0676C1736.15 64.0676 1737.62 70.8007 1733.12 72.8701C1625.85 122.266 1553.54 166.309 1570.86 250.974C1573.19 262.371 1577.91 276.482 1591.08 291.703C1537.93 293.937 1482.09 263.121 1463.01 215.854C1444.3 169.518 1462.43 115.053 1500.79 79.6182C1511.7 69.5411 1526.1 64.0676 1540.96 64.0676Z" fill="#FF3B2A"/>
<path d="M1811.81 113.868V257.947L1590.39 291.883L1777.22 99.8174C1789.83 86.8461 1811.81 95.7835 1811.81 113.868Z" fill="#FF3B2A"/>
<path d="M1533.22 421.071H1786.25C1801.32 421.071 1813.16 407.86 1811.17 392.924C1811.17 392.849 1811.15 392.774 1811.14 392.684C1804.12 341.954 1714.24 303.235 1589.71 291.328C1594.93 297.731 1619.06 318.065 1613.99 351.956C1608.82 386.431 1575.36 412.958 1533.22 421.056V421.071Z" fill="#FF3B2A"/>
</g>
<path d="M1479.6 128.571L1485.34 125.411L1479.73 122L1479.6 128.571Z" fill="white"/>
<path d="M1440 28L1440 244.241" stroke="white" stroke-width="0.476302" stroke-miterlimit="10"/>
<path d="M1308 662L1308 891.5" stroke="white" stroke-width="0.476302" stroke-miterlimit="10"/>
</svg>
