<svg width="386" height="556" viewBox="0 0 386 556" fill="none" xmlns="http://www.w3.org/2000/svg">
<path d="M69.3104 372.816L60.5005 359.097L81.396 345.642L90.2059 359.361L69.3104 372.816ZM61.4119 359.295L69.5085 371.904L89.2945 359.163L81.1979 346.555L61.4119 359.295Z" fill="white"/>
<path d="M121.496 452.521L112.687 438.801L133.582 425.346L142.392 439.066L121.496 452.521ZM113.598 439.006L121.695 451.614L141.481 438.874L133.384 426.266L113.598 439.006Z" fill="white"/>
<path d="M17.3358 294.031L8.52588 280.312L29.4214 266.857L38.2313 280.576L17.3358 294.031ZM9.43725 280.51L17.5339 293.118L37.3199 280.378L29.2233 267.77L9.43725 280.51Z" fill="white"/>
<path d="M341.995 343.981H340.939C324.045 343.981 310.295 329.501 310.295 311.7V275.384H310.956V311.7C310.956 329.137 324.408 343.32 340.939 343.32H341.995C358.525 343.32 371.978 329.137 371.978 311.7V275.384H372.638V311.7C372.638 329.501 358.895 343.981 341.995 343.981Z" fill="white"/>
<path d="M372.506 279.783H310.361V280.113H372.506V279.783Z" fill="white"/>
<path d="M372.506 284.744H310.361V285.074H372.506V284.744Z" fill="white"/>
<path d="M372.506 289.706H310.361V290.036H372.506V289.706Z" fill="white"/>
<path d="M372.506 294.601H310.361V294.931H372.506V294.601Z" fill="white"/>
<path d="M372.506 299.562H310.361V299.893H372.506V299.562Z" fill="white"/>
<path d="M372.506 304.523H310.361V304.854H372.506V304.523Z" fill="white"/>
<path d="M372.506 309.484H310.361V309.815H372.506V309.484Z" fill="white"/>
<path d="M372.506 314.445H310.361V314.776H372.506V314.445Z" fill="white"/>
<path d="M385.55 522.931H297.318V275.053H310.956V275.714H297.979V522.27H384.889V275.714H371.978V275.053H385.55V522.931Z" fill="white"/>
<path d="M274.27 545.872H273.61V522.521H384.889V190.037H297.484V0.661503H185.339V66.6067H0.660414V267.148L168.254 522.521H214.304V545.872H213.644V523.183H167.897L167.798 523.031L0 267.346V65.9452H184.678V0H298.144V189.375H385.55V523.183H274.27V545.872Z" fill="white"/>
<path d="M310.956 275.384H297.325V282.118H310.956V275.384Z" fill="white"/>
<path d="M384.883 275.443H371.978V282.177H384.883V275.443Z" fill="white"/>
<path d="M278.78 522.528H273.523V529.778H278.78V522.528Z" fill="white"/>
<path d="M297.648 526.153V522.601H277.34V526.153H297.648Z" fill="white"/>
<path d="M213.749 526.153V522.601H167.844V526.153H213.749Z" fill="white"/>
<path d="M278.78 525.234H273.523V545.873H278.78V525.234Z" fill="white"/>
<path d="M213.743 525.234H208.486V545.873H213.743V525.234Z" fill="white"/>
<path d="M208.816 300.554H183.357V275.053H208.816V300.554ZM184.017 299.892H208.155V275.714H184.017V299.892Z" fill="white"/>
<path d="M242.372 556V540.567L236.508 546.468L234.698 544.695L243.647 535.751L252.569 544.695L250.812 546.468L244.921 540.567V556H242.372Z" fill="white"/>
</svg>
