<svg width="513" height="261" viewBox="0 0 513 261" fill="none" xmlns="http://www.w3.org/2000/svg">
<g clip-path="url(#clip0_1228_2209)">
<rect y="0.658691" width="512.368" height="259.477" fill="white"/>
<path d="M3.10718e-06 0.0882263L0 260.651L512.431 260.651L512.431 0.0882324L3.10718e-06 0.0882263Z" fill="white" stroke="#231815" stroke-width="0.143159" stroke-miterlimit="10"/>
<rect x="449.163" y="197.431" width="63.1333" height="63.1333" fill="white" stroke="#868686" stroke-width="0.143159"/>
<path d="M449.521 197.931L511.939 260.063M511.939 197.931L449.521 260.063" stroke="black" stroke-width="0.143159"/>
<mask id="path-6-inside-1_1228_2209" fill="white">
<path fill-rule="evenodd" clip-rule="evenodd" d="M0.000150301 328.268H0V225.705L0.000190735 225.705C17.4176 225.705 32.2029 240.331 37.4617 260.637H0.000150301V328.268Z"/>
</mask>
<path fill-rule="evenodd" clip-rule="evenodd" d="M0.000150301 328.268H0V225.705L0.000190735 225.705C17.4176 225.705 32.2029 240.331 37.4617 260.637H0.000150301V328.268Z" fill="white"/>
<path d="M0 328.268H-0.143159V328.411H0V328.268ZM0.000150301 328.268V328.411H0.14331V328.268H0.000150301ZM0 225.705L-4.36888e-07 225.561L-0.143159 225.561V225.705H0ZM0.000190735 225.705V225.561H0.000190298L0.000190735 225.705ZM37.4617 260.637V260.78H37.6467L37.6003 260.601L37.4617 260.637ZM0.000150301 260.637V260.494H-0.143009V260.637H0.000150301ZM0 328.411H0.000150301V328.125H0V328.411ZM-0.143159 225.705V328.268H0.143159V225.705H-0.143159ZM0.000190298 225.561H-4.36888e-07L4.36888e-07 225.848H0.000191172L0.000190298 225.561ZM37.6003 260.601C32.3316 240.257 17.5055 225.561 0.000190735 225.561V225.848C17.3298 225.848 32.0742 240.405 37.3231 260.673L37.6003 260.601ZM0.000150301 260.78H37.4617V260.494H0.000150301V260.78ZM0.14331 328.268V260.637H-0.143009V328.268H0.14331Z" fill="black" mask="url(#path-6-inside-1_1228_2209)"/>
<rect x="242.512" y="124.349" width="25.1961" height="25.1961" fill="#D9D9D9"/>
<rect y="0.658691" width="511.938" height="259.405" fill="#040000"/>
<path d="M373.581 243.376V254.061H372.238V244.763H372.179L369.582 246.49V245.147L372.238 243.376H373.581ZM376.769 254.061L381.669 244.63V244.557H376.016V243.376H383.041V244.616L378.156 254.061H376.769Z" fill="white"/>
<path d="M285.991 243.376V254.061H284.648V244.763H284.589L281.992 246.49V245.147L284.648 243.376H285.991ZM292.411 254.209C290.16 254.209 288.611 252.962 288.618 251.227C288.611 249.847 289.57 248.704 290.788 248.512V248.453C289.725 248.209 289.024 247.228 289.031 246.062C289.024 244.431 290.456 243.228 292.411 243.228C294.359 243.228 295.791 244.431 295.806 246.062C295.791 247.228 295.082 248.209 294.035 248.453V248.512C295.245 248.704 296.204 249.847 296.219 251.227C296.204 252.962 294.64 254.209 292.411 254.209ZM289.946 251.154C289.924 252.275 290.876 253.035 292.411 253.043C293.939 253.035 294.891 252.275 294.891 251.154C294.891 249.973 293.85 249.102 292.411 249.102C290.98 249.102 289.924 249.973 289.946 251.154ZM290.315 246.165C290.323 247.243 291.186 247.973 292.411 247.981C293.629 247.973 294.507 247.243 294.507 246.165C294.507 245.095 293.658 244.372 292.411 244.379C291.142 244.372 290.323 245.095 290.315 246.165Z" fill="white"/>
<path d="M166.79 243.376V254.061H165.447V244.763H165.388L162.79 246.49V245.147L165.447 243.376H166.79ZM173.195 243.228C175.033 243.25 177.077 244.357 177.077 248.29C177.077 252.091 175.52 254.209 173.018 254.209C171.136 254.209 169.815 253.057 169.55 251.36H170.863C171.099 252.32 171.83 253.028 173.018 253.028C174.759 253.028 175.822 251.523 175.837 248.925H175.689C175.077 249.811 174.095 250.342 172.959 250.342C171.048 250.342 169.461 248.873 169.461 246.815C169.461 244.822 170.922 243.206 173.195 243.228ZM170.76 246.8C170.753 248.121 171.756 249.176 173.151 249.176C174.545 249.176 175.63 248.025 175.63 246.77C175.63 245.545 174.605 244.394 173.195 244.394C171.8 244.394 170.745 245.479 170.76 246.8Z" fill="white"/>
<path d="M363.279 2.63428L322.699 2.63428L322.699 22.9243L363.279 22.9243L363.279 2.63428Z" stroke="#E42F2F" stroke-width="1.31714" stroke-miterlimit="10"/>
<path d="M449.552 2.63428L408.972 2.63428L408.972 22.9243L449.552 22.9243L449.552 2.63428Z" stroke="#E42F2F" stroke-width="1.31714" stroke-miterlimit="10"/>
<path d="M114.34 2.63428L73.7598 2.63428L73.7598 22.9243L114.34 22.9243L114.34 2.63428Z" stroke="#E42F2F" stroke-width="1.31714" stroke-miterlimit="10"/>
<path d="M20.2898 105.778L20.2898 65.1985L-0.000196457 65.1985L-0.000198231 105.778L20.2898 105.778Z" stroke="#E42F2F" stroke-width="1.31714" stroke-miterlimit="10"/>
<path d="M510.266 92.6071L510.266 52.0271L489.976 52.0271L489.976 92.6071L510.266 92.6071Z" stroke="#E42F2F" stroke-width="1.31714" stroke-miterlimit="10"/>
<path d="M510.266 165.05L510.266 124.47L489.976 124.47L489.976 165.05L510.266 165.05Z" stroke="#E42F2F" stroke-width="1.31714" stroke-miterlimit="10"/>
<path d="M276.348 2.63428L235.768 2.63428L235.768 22.9243L276.348 22.9243L276.348 2.63428Z" stroke="#E42F2F" stroke-width="1.31714" stroke-miterlimit="10"/>
<path d="M194.685 2.63428L154.105 2.63428L154.105 22.9243L194.685 22.9243L194.685 2.63428Z" stroke="#E42F2F" stroke-width="1.31714" stroke-miterlimit="10"/>
<path d="M242.473 157.626L242.473 117.046L222.183 117.046L222.183 157.626L242.473 157.626Z" stroke="white" stroke-width="0.143159" stroke-miterlimit="10"/>
<path d="M190.075 238.403L149.495 238.403L149.495 258.693L190.075 258.693L190.075 238.403Z" stroke="#E42F2F" stroke-width="1.31714" stroke-miterlimit="10"/>
<path d="M309.935 238.403L269.355 238.403L269.355 258.693L309.935 258.693L309.935 238.403Z" stroke="#E42F2F" stroke-width="1.31714" stroke-miterlimit="10"/>
<path d="M397.525 238.403L356.945 238.403L356.945 258.693L397.525 258.693L397.525 238.403Z" stroke="#E42F2F" stroke-width="1.31714" stroke-miterlimit="10"/>
<path d="M449.145 197.571L511.563 259.703M511.563 197.571L449.145 259.703" stroke="#858585" stroke-width="0.526856"/>
<rect x="449.474" y="197.242" width="62.5642" height="62.5642" stroke="#4F4F50" stroke-width="0.65857"/>
<path d="M9.82879 80.5616C11.6662 80.5837 13.7103 81.6906 13.7103 85.6237C13.7103 89.424 12.1532 91.5419 9.65169 91.5419C7.76999 91.5419 6.44911 90.3907 6.18346 88.6935H7.49696C7.73309 89.6528 8.46364 90.3612 9.65169 90.3612C11.3932 90.3612 12.4558 88.8558 12.4706 86.2583H12.323C11.7105 87.1439 10.7291 87.6752 9.59266 87.6752C7.68144 87.6752 6.09491 86.2067 6.09491 84.1479C6.09491 82.1555 7.55599 80.5394 9.82879 80.5616ZM7.39365 84.1331C7.38627 85.454 8.38984 86.5092 9.78452 86.5092C11.1792 86.5092 12.2639 85.3581 12.2639 84.1036C12.2639 82.8787 11.2382 81.7275 9.82879 81.7275C8.43412 81.7275 7.37889 82.8123 7.39365 84.1331Z" fill="white"/>
<path d="M91.7129 7.60785V18.293H90.3699V8.99515H90.3108L87.7133 10.7219V9.37887L90.3699 7.60785H91.7129ZM98.059 18.4406C95.6903 18.4406 94.3178 16.4482 94.3251 12.9504C94.3178 9.48218 95.705 7.46027 98.059 7.46027C100.406 7.46027 101.793 9.48218 101.793 12.9504C101.793 16.4482 100.428 18.4406 98.059 18.4406ZM95.6091 12.9504C95.6165 15.7176 96.5094 17.2599 98.059 17.2599C99.6013 17.2599 100.502 15.7176 100.494 12.9504C100.502 10.1832 99.5939 8.61881 98.059 8.61143C96.5241 8.61881 95.6165 10.1832 95.6091 12.9504Z" fill="white"/>
<path d="M171.4 7.60785V18.293H170.057V8.99515H169.998L167.4 10.7219V9.37887L170.057 7.60785H171.4ZM178.026 7.60785V18.293H176.683V8.99515H176.624L174.027 10.7219V9.37887L176.683 7.60785H178.026Z" fill="white"/>
<path d="M253.063 7.60785V18.293H251.72V8.99515H251.661L249.063 10.7219V9.37887L251.72 7.60785H253.063ZM255.911 18.293L255.896 17.3189L259.542 13.4817C260.803 12.1387 261.409 11.4155 261.416 10.4267C261.409 9.32721 260.493 8.61881 259.291 8.61143C258.014 8.61881 257.217 9.42314 257.21 10.6186H255.955C255.941 8.7295 257.402 7.46027 259.335 7.46027C261.276 7.46027 262.648 8.76639 262.656 10.4267C262.648 11.6222 262.095 12.5519 260.206 14.5L257.756 17.0237V17.1123H262.847V18.293H255.911Z" fill="white"/>
<path d="M339.994 7.60785V18.293H338.651V8.99515H338.592L335.994 10.7219V9.37887L338.651 7.60785H339.994ZM346.532 18.4406C344.407 18.4406 342.879 17.3042 342.813 15.6069H344.156C344.23 16.6253 345.241 17.2599 346.517 17.2599C347.927 17.2599 348.945 16.4998 348.952 15.3856C348.945 14.2196 348.015 13.4005 346.355 13.3932H345.484V12.2272H346.355C347.654 12.2272 348.561 11.4967 348.554 10.3972C348.561 9.32721 347.779 8.61881 346.561 8.61143C345.418 8.61881 344.377 9.24604 344.318 10.2939H343.034C343.101 8.59667 344.68 7.46027 346.576 7.46027C348.613 7.46027 349.853 8.79591 349.838 10.3234C349.853 11.541 349.144 12.4265 348.022 12.7438V12.8176C349.417 13.0316 350.258 14.0278 350.251 15.3856C350.258 17.1418 348.664 18.4406 346.532 18.4406Z" fill="white"/>
<path d="M426.267 7.60785V18.293H424.924V8.99515H424.865L422.267 10.7219V9.37887L424.924 7.60785H426.267ZM428.849 16.1087V15.0166L433.661 7.60785H435.299V14.9428H436.789V16.1087H435.299V18.293H434.03V16.1087H428.849ZM430.281 14.9428H434.03V9.29032H433.897L430.281 14.8543V14.9428Z" fill="white"/>
<path d="M496.734 67.5378V78.2229H495.391V68.9251H495.332L492.734 70.6518V69.3088L495.391 67.5378H496.734ZM503.065 78.3705C501.139 78.3705 499.678 77.1824 499.597 75.5369H500.881C500.977 76.4888 501.906 77.1972 503.065 77.2046C504.452 77.1972 505.456 76.1862 505.456 74.8432C505.456 73.4559 504.415 72.4302 502.976 72.4228C502.076 72.4081 501.375 72.6885 500.984 73.3821H499.7L500.453 67.5378H506.238V68.7185H501.56L501.161 71.8473H501.264C501.744 71.4783 502.46 71.2274 503.213 71.2274C505.249 71.2274 506.747 72.7328 506.755 74.8137C506.747 76.8799 505.198 78.3705 503.065 78.3705Z" fill="white"/>
<path d="M496.734 138.663V149.348H495.391V140.051H495.332L492.734 141.777V140.434L495.391 138.663H496.734ZM503.301 149.496C501.449 149.474 499.405 148.374 499.405 144.419C499.405 140.634 500.955 138.516 503.463 138.516C505.345 138.516 506.659 139.674 506.932 141.349H505.618C505.375 140.405 504.652 139.696 503.463 139.696C501.707 139.696 500.652 141.194 500.659 143.77H500.792C501.405 142.877 502.386 142.353 503.537 142.353C505.434 142.353 507.02 143.829 507.02 145.895C507.02 147.909 505.552 149.518 503.301 149.496ZM500.836 145.924C500.844 147.179 501.87 148.323 503.301 148.33C504.681 148.323 505.729 147.238 505.736 145.91C505.729 144.596 504.725 143.526 503.331 143.519C501.929 143.526 500.851 144.663 500.836 145.924Z" fill="white"/>
</g>
<rect x="0.65857" y="1.31726" width="511.051" height="258.16" stroke="#5E5F5F" stroke-width="1.31714"/>
<defs>
<clipPath id="clip0_1228_2209">
<rect y="0.658691" width="512.368" height="259.477" fill="white"/>
</clipPath>
</defs>
</svg>
