<svg width="505" height="256" viewBox="0 0 505 256" fill="none" xmlns="http://www.w3.org/2000/svg">
<path d="M40.5444 185.962H41.601C58.4944 185.962 72.2442 200.442 72.2442 218.243V254.56H71.5838V218.243C71.5838 200.806 58.1312 186.623 41.601 186.623H40.5444C24.0142 186.623 10.5615 200.806 10.5615 218.243L10.5219 254.56H9.90112V218.243C9.90112 200.442 23.6444 185.962 40.5444 185.962Z" fill="white"/>
<path d="M72.1784 249.83H10.0334V250.161H72.1784V249.83Z" fill="white"/>
<path d="M72.1784 244.868H10.0334V245.199H72.1784V244.868Z" fill="white"/>
<path d="M72.1784 239.907H10.0334V240.238H72.1784V239.907Z" fill="white"/>
<path d="M72.1784 235.012H10.0334V235.343H72.1784V235.012Z" fill="white"/>
<path d="M72.1784 230.051H10.0334V230.382H72.1784V230.051Z" fill="white"/>
<path d="M72.1784 225.089H10.0334V225.42H72.1784V225.089Z" fill="white"/>
<path d="M72.1784 220.128H10.0334V220.459H72.1784V220.128Z" fill="white"/>
<path d="M72.1784 215.167H10.0334V215.498H72.1784V215.167Z" fill="white"/>
<path d="M10.5218 248.831H0.424072V255.565H10.5218V248.831Z" fill="white"/>
<path d="M81.6291 248.831H71.5842V255.565H81.6291V248.831Z" fill="white"/>
<path d="M264.953 137.235H239.494V111.734H264.953V137.235ZM240.148 136.574H264.286V112.396H240.148V136.574Z" fill="white"/>
<path d="M436.899 248.97H71.5839V248.308H436.238V196.129H503.356V0.661503H1.08473V248.308H10.0333V248.97H0.424316V0H504.016V196.791H436.899V248.97Z" fill="white"/>
</svg>
