<svg width="118" height="118" viewBox="0 0 118 118" fill="none" xmlns="http://www.w3.org/2000/svg">
<path id="Vector" d="M93.5606 11.8949C84.8443 4.65422 76.8639 2.24201 74.3634 1.55735C67.5581 -0.301569 62.1614 -0.0348726 60.4205 0.0885247C56.5826 0.363183 54.0465 1.12745 53.4411 1.31056C43.1659 4.41539 36.8908 12.2332 34.145 24.0435C33.7651 25.6676 33.5277 27.3354 33.0807 28.9794V15.0156C33.0807 6.89528 26.5365 0.311435 18.4651 0.311435H0.450928L31.4506 39.8742H17.8796C8.25326 39.8742 0.450928 47.7239 0.450928 57.4086V117.961L32.4674 41.8764V92.7479C32.4674 106.672 43.6882 117.961 57.5282 117.961H94.9573L37.0174 41.8048C39.6842 44.3245 42.3271 46.88 45.0255 49.3559C54.9565 58.4793 65.1763 67.1131 76.3337 74.1388C82.5653 78.0637 88.9987 81.4392 95.9741 83.1787C98.9969 83.931 102.055 84.2693 105.134 83.8116C107.416 83.4732 109.426 82.6731 111.124 81.4551C115.785 78.1074 116.877 72.1486 117.336 69.4935C119.496 57.0503 114.218 29.0431 93.5725 11.8949H93.5606ZM67.6056 48.2652C65.9359 48.5518 64.1634 48.4204 62.4937 48.2572C53.1483 46.5536 44.7169 41.757 35.8186 38.0869C46.5527 35.5274 59.2335 34.3213 68.8717 41.5221C71.8391 43.6557 70.9845 47.6164 67.6056 48.2652Z" fill="#1F1D1D"/>
</svg>
