<svg width="119" height="118" viewBox="0 0 119 118" fill="none" xmlns="http://www.w3.org/2000/svg">
<path id="Vector" d="M118.745 100.982V62.6452C117.614 64.4235 111.857 73.2368 107.004 72.0393C106.843 71.9914 106.573 71.9016 106.268 71.7459C103.019 70.0695 102.881 64.3456 102.821 61.9148C102.666 55.4605 107.22 39.9294 115.34 20.279C112.743 16.5609 110.14 12.8488 107.543 9.13065C103.737 10.7472 100.493 11.8668 98.1595 12.6093C89.1593 15.4712 83.7854 15.8783 82.2714 15.9203C79.8418 15.9921 77.5499 15.8424 75.2819 15.549C67.9093 14.5911 63.852 6.4663 67.5263 0C48.4247 0.179619 29.3291 0.359235 10.2275 0.538854C4.8836 8.52593 3.01653 13.9923 2.50788 17.7404C2.50189 17.8063 2.48992 17.8601 2.48992 17.8601C1.52647 25.2185 3.38755 31.6489 8.81523 36.816C13.9796 41.7315 20.3528 43.6355 25.6787 44.5336C52.5718 49.078 81.8825 34.3432 87.8308 31.2478C92.0975 29.0265 95.4367 27.0147 97.3995 25.7933C65.1925 56.2687 32.9915 86.7382 0.784424 117.214C13.9796 117.255 27.1808 117.297 40.376 117.333C52.6855 117.333 63.864 110.137 68.9566 98.9223C80.0513 75.6557 91.14 52.389 102.235 29.1283C98.728 37.6781 96.1847 44.809 94.5271 49.6887C94.5271 49.6887 82.1757 86.0317 87.0169 104.215C87.5615 106.257 88.866 111.16 93.0729 113.46C93.0729 113.46 94.7425 114.37 96.9208 114.609C105.538 115.555 117.901 101.916 118.733 100.982H118.745Z" fill="#1F1D1D"/>
</svg>
