<svg width="116" height="117" viewBox="0 0 116 117" fill="none" xmlns="http://www.w3.org/2000/svg">
<g id="Vector">
<path d="M2.57405 80.9097L42.6501 74.5726H46.3448C31.8226 88.5963 17.2957 102.615 2.7735 116.639C2.70701 104.728 2.64054 92.8211 2.57405 80.9097Z" fill="#1F1D1D"/>
<path d="M27.6626 0.572227H89.2987C84.2079 2.4462 75.8925 5.96049 66.8031 12.207C61.9497 15.5401 34.1401 34.6756 35.0471 56.0283C35.1706 58.8989 35.5078 66.8382 41.1115 70.7769C43.2105 72.2503 45.4187 72.7224 46.9146 72.894C46.2688 73.7094 45.6229 74.5248 44.9818 75.3402C42.7498 75.1543 39.6488 74.7632 36.0491 73.8573C29.2392 72.1454 9.58344 67.2102 2.41258 49.9487C-3.94621 34.6422 3.00145 16.4366 14.6505 5.63146C18.1885 2.35083 22.8519 0.567461 27.6673 0.567461L27.6626 0.572227Z" fill="#1F1D1D"/>
<path d="M115.413 63.6434C92.4662 67.1768 69.5242 70.7053 46.5775 74.2387C45.8604 74.0575 45.1433 73.8715 44.4262 73.6903C68.0996 49.1285 91.7776 24.5619 115.451 0C115.437 21.2145 115.422 42.4289 115.408 63.6434H115.413Z" fill="#1F1D1D"/>
<path d="M25.3926 116.706H107.193C108.228 116.324 111.813 114.851 113.58 111.108C115.147 107.789 114.382 104.604 113.931 102.83C112.141 95.7966 106.452 91.2714 101.988 88.1338C101.988 88.1338 79.5255 74.2626 44.7824 72.6414C44.7729 72.6414 44.7634 72.6414 44.7587 72.6557C43.7851 73.3948 42.8116 74.1339 41.8428 74.873C42.8259 75.0065 44.393 75.3594 46.0456 76.3655C48.5578 77.9009 49.764 80.0515 50.2294 81.0194C50.2294 81.0194 52.186 84.61 51.7871 89.7408C51.1554 97.8232 41.0308 108.356 25.4021 116.706H25.3926Z" fill="#1F1D1D"/>
</g>
</svg>
