<svg width="40" height="22" viewBox="0 0 40 22" fill="none" xmlns="http://www.w3.org/2000/svg">
<g id="_&#235;&#160;&#136;&#236;&#157;&#180;&#236;&#150;&#180;_1" clip-path="url(#clip0_1228_2279)">
<path id="Exclude" fill-rule="evenodd" clip-rule="evenodd" d="M20 16.8937C18.0504 19.8473 14.7018 21.796 10.898 21.796C4.87921 21.796 0 16.9168 0 10.898C0 4.87921 4.87921 0 10.898 0C14.7018 0 18.0504 1.94876 20 4.90236C21.9495 1.94876 25.2981 0 29.1019 0C35.1207 0 39.9999 4.87921 39.9999 10.898C39.9999 16.9168 35.1207 21.796 29.1019 21.796C25.2981 21.796 21.9495 19.8473 20 16.8937ZM15.1692 16.4103H6.92308V6.10259H15.1692V7.5949H8.58462V10.4872H14.9385V11.9641H8.58462V14.918H15.1692V16.4103ZM25.3846 16.4103H33.6308V14.918H27.0462V11.9641H33.4V10.4872H27.0462V7.5949H33.6308V6.10259H25.3846V16.4103Z" fill="white"/>
</g>
<defs>
<clipPath id="clip0_1228_2279">
<rect width="40" height="21.8037" fill="white"/>
</clipPath>
</defs>
</svg>
