<svg width="121" height="24" viewBox="0 0 121 24" fill="none" xmlns="http://www.w3.org/2000/svg">
<g id="_&#235;&#160;&#136;&#236;&#157;&#180;&#236;&#150;&#180;_3" clip-path="url(#clip0_1294_522)">
<path id="Vector" d="M23.7887 15.6407C23.7567 15.209 23.6448 14.6495 23.5489 14.2178C23.421 13.5783 23.3091 12.9868 23.1332 12.2834C23.0053 11.7238 22.8614 11.1643 22.7335 10.5088C22.6216 9.96525 22.4298 8.92609 22.3019 8.22266C22.094 7.08758 21.4705 5.24907 21.3107 4.76946C20.959 3.7303 20.7032 3.18674 20.3514 2.54726C19.3603 0.740726 17.6976 -0.346393 15.8271 0.436972C14.4362 1.01251 13.0614 2.73911 11.9423 4.09801C11.2388 4.97729 10.5034 5.90454 9.87994 6.83179C9.16052 7.88694 7.68971 10.5568 7.68971 10.5568C7.64175 10.5568 6.93832 10.6047 6.76246 10.6047C5.57942 10.6047 4.39638 10.6047 3.21334 10.7007C2.35004 10.7646 1.42279 10.9405 0.847255 11.5959C0.847255 11.5959 0.191786 12.2514 0.0638897 12.6031C-0.0160456 12.8109 -0.0480197 13.1307 0.0638897 13.3065C0.271721 13.6742 0.479553 13.8501 1.27891 13.8661C2.2701 13.8821 3.88479 13.962 5.01987 13.962C5.30764 13.962 5.59541 13.962 5.88317 13.962C5.14777 16.0084 4.1246 17.9268 3.32525 19.9891C3.05347 20.6606 2.68577 21.2681 2.68577 21.9875C2.68577 22.1953 2.71774 22.4192 2.79767 22.659C2.90958 23.0267 3.24531 23.6981 3.70894 23.89C3.82085 23.9379 3.93275 23.9699 4.02868 23.9699C4.20453 23.9699 4.41237 23.842 4.6202 23.6342C5.59541 22.7229 5.88317 21.9076 6.25088 20.8364C6.37877 20.4687 6.79444 19.3177 6.98628 18.8061C7.38596 17.719 7.5778 17.2234 8.12136 15.9444C8.47307 15.193 8.84078 14.4896 9.24045 13.7382C9.28841 13.6583 9.35236 13.6103 9.44829 13.6103C10.6793 13.5783 12.9494 13.4984 14.3243 13.4344C14.708 13.4185 15.8111 13.4025 17.1061 13.4344C18.1133 13.4344 18.449 13.4344 19.1045 13.2586C19.3762 13.1786 19.4881 13.0827 19.4881 12.9708C19.5201 12.6351 18.5769 12.2994 18.3371 12.1715C17.8255 11.9157 17.186 11.5799 16.4186 11.3881C14.8039 10.9884 13.8127 10.8445 12.7736 10.7326C12.294 10.6847 11.4147 10.5568 11.1749 10.5408C11.7984 9.50163 12.7736 8.25464 13.8287 6.99166C14.4203 6.30422 15.1237 5.72868 15.4754 5.44092C15.7951 5.16914 16.1469 5.02525 16.4346 4.99328C16.8663 4.92933 17.266 5.05723 17.6496 5.50487C17.9534 5.84059 18.1772 6.40014 18.3531 6.84778C18.5929 7.4393 18.8167 8.03082 18.9926 8.5424C19.68 10.6527 20.4793 13.3545 21.0389 14.8253C21.1508 15.1291 21.4546 15.7366 21.6624 16.0883C22.0621 16.8237 22.4777 17.4792 22.5896 17.655C22.8614 18.0547 23.0053 18.0387 23.0692 18.0387C23.7887 18.0387 23.8366 16.1362 23.7887 15.6247V15.6407Z" fill="white"/>
<g id="Group">
<g id="Group_2">
<path id="Vector_2" d="M34.5799 3.77833C37.0579 3.77833 38.6406 5.87264 38.6406 8.89419C38.6406 11.9157 37.0579 13.9781 34.5799 13.9781C32.1019 13.9781 30.5032 11.8998 30.5032 8.89419C30.5032 5.88862 32.1179 3.77833 34.5799 3.77833ZM34.5799 12.2515C35.7629 12.2515 36.6422 10.9885 36.6422 8.8782C36.6422 6.76791 35.7629 5.50493 34.5799 5.50493C33.3968 5.50493 32.5175 6.7839 32.5175 8.8782C32.5175 10.9725 33.3968 12.2515 34.5799 12.2515ZM42.3656 9.90137V17.783H40.3352V2.77115H42.3656V8.17477H44.7157V9.90137H42.3656Z" fill="white"/>
<path id="Vector_3" d="M53.045 11.6759C51.814 11.1963 50.2633 9.7415 49.6238 8.33464C49.1122 9.8694 47.6254 11.4361 46.1226 12.0916L44.9236 10.5089C47.0499 9.62959 48.5526 7.55128 48.5526 5.15322V3.53853H50.6469V5.08927C50.6469 7.47134 52.3735 9.46972 54.1641 10.0932L53.045 11.6759ZM47.7693 18.0388V12.827H49.7836V16.3761H57.6653V18.0388H47.7693ZM57.2656 8.7503V13.9141H55.2512V2.77115H57.2656V7.0237H59.5677V8.7503H57.2656Z" fill="white"/>
<g id="Group_3">
<path id="Vector_4" d="M73.1567 8.15878V2.77115H71.1423V17.767H73.1567V9.88538H75.4428V8.15878H73.1567Z" fill="white"/>
<path id="Vector_5" d="M63.7723 12.0756V4.05008H61.7739V13.8342C64.9394 13.8342 67.913 13.6423 69.9273 13.1627V11.4841C68.1687 11.8677 65.8986 12.0756 63.7723 12.0596V12.0756Z" fill="white"/>
</g>
<path id="Vector_6" d="M77.9686 18.4065V12.9229H81.9174V11.3082H76.0342V9.62958H89.847V11.3082H83.9318V12.9229H87.9285V18.4065H77.9846H77.9686ZM80.0629 2.97897V6.71994H87.9765V8.3826H78.0485V2.99496H80.0629V2.97897ZM85.8982 14.5536H79.983V16.7758H85.8982V14.5536Z" fill="white"/>
<path id="Vector_7" d="M96.4657 5.96856V6.25632C96.4657 9.59762 97.5688 11.612 99.3274 12.6352L98.2083 14.1699C97.2171 13.5784 95.8582 11.9637 95.4905 10.6208C95.1388 12.0436 93.8439 13.8022 92.6608 14.4897L91.4458 13.0828C93.4282 11.6919 94.4993 9.72551 94.4993 6.32027V5.98454H91.9734V4.28992H98.8958V5.98454H96.4817L96.4657 5.96856ZM102.924 17.783V9.93335H101.678V17.1115H99.7591V3.02694H101.678V8.22273H102.924V2.77115H104.859V17.783H102.924Z" fill="white"/>
</g>
<g id="Group_4">
<path id="Vector_8" d="M114.547 9.26188C112.9 9.6136 110.63 9.75748 108.472 9.72551V5.56888H113.364V3.92221H106.474V11.4361C110.215 11.5161 112.773 11.2763 114.547 10.9086V9.2459V9.26188Z" fill="white"/>
<path id="Vector_9" d="M110.582 12.843H108.552V18.0547H118.352V16.3761H110.582V12.843Z" fill="white"/>
<path id="Vector_10" d="M117.968 6.89581V2.77115H115.938V13.8981H117.968V8.60642H120.239V6.89581H117.968Z" fill="white"/>
</g>
</g>
</g>
<defs>
<clipPath id="clip0_1294_522">
<rect width="120.239" height="23.8047" fill="white" transform="translate(0 0.197266)"/>
</clipPath>
</defs>
</svg>
