<svg width="99" height="21" viewBox="0 0 99 21" fill="none" xmlns="http://www.w3.org/2000/svg">
<g id="_&#235;&#160;&#136;&#236;&#157;&#180;&#236;&#150;&#180;_3" clip-path="url(#clip0_1294_537)">
<g id="Group">
<path id="Vector" d="M41.0693 11.955H38.8311C38.2875 13.7455 36.6249 15.0405 34.6585 15.0405C32.2444 15.0405 30.294 13.09 30.294 10.676C30.294 8.26196 32.2444 6.31154 34.6585 6.31154C36.1932 6.31154 37.5362 7.11089 38.3195 8.30992L40.4618 6.16765C39.1189 4.44105 37.0246 3.32196 34.6585 3.32196C30.5978 3.32196 27.3044 6.61529 27.3044 10.676C27.3044 14.7367 30.5978 18.03 34.6585 18.03C38.2875 18.03 41.2931 15.4082 41.9006 11.955H41.0693Z" fill="white"/>
<path id="Vector_2" d="M75.4254 3.32184C73.6988 3.32184 72.1481 4.07323 71.0929 5.27226C70.0218 4.07323 68.4711 3.32184 66.7604 3.32184C63.547 3.32184 60.9412 5.92773 60.9412 9.14112V18.0299H63.8988V9.14112C63.8988 7.57439 65.1777 6.27944 66.7604 6.27944C68.3432 6.27944 69.6221 7.55841 69.6221 9.14112V18.0299H72.5797V9.14112C72.5797 7.57439 73.8587 6.27944 75.4414 6.27944C77.0241 6.27944 78.3031 7.55841 78.3031 9.14112V18.0299H81.2607V9.14112C81.2607 5.92773 78.6548 3.32184 75.4414 3.32184H75.4254Z" fill="white"/>
<path id="Vector_3" d="M58.1595 10.7558C58.1595 10.7558 58.1595 10.7079 58.1595 10.6759C58.1595 6.61517 54.8662 3.32184 50.8055 3.32184C46.7447 3.32184 43.4514 6.61517 43.4514 10.6759C43.4514 14.7366 46.7447 18.0299 50.8055 18.0299C52.4361 18.0299 53.9549 17.4864 55.1859 16.5911V18.0139H58.1755V10.7558H58.1595ZM50.8055 15.0403C48.3914 15.0403 46.441 13.0899 46.441 10.6759C46.441 8.26184 48.3914 6.31142 50.8055 6.31142C53.2195 6.31142 55.1699 8.26184 55.1699 10.6759C55.1699 13.0899 53.2195 15.0403 50.8055 15.0403Z" fill="white"/>
<path id="Vector_4" d="M91.3003 3.28989C87.2396 3.28989 83.9463 6.58322 83.9463 10.6439C83.9463 10.6759 83.9463 10.6919 83.9463 10.7239V20.5079H86.9359V16.5591C88.1509 17.4704 89.6696 17.998 91.3003 17.998C95.361 17.998 98.6544 14.7046 98.6544 10.6439C98.6544 6.58322 95.361 3.28989 91.3003 3.28989ZM91.3003 15.0084C88.8863 15.0084 86.9359 13.058 86.9359 10.6439C86.9359 8.22988 88.8863 6.27946 91.3003 6.27946C93.7144 6.27946 95.6648 8.22988 95.6648 10.6439C95.6648 13.058 93.7144 15.0084 91.3003 15.0084Z" fill="white"/>
</g>
<path id="Vector_5" d="M22.7802 10.6759C22.7802 11.5712 22.0448 12.3066 21.1495 12.3066C20.2542 12.3066 19.5188 11.5712 19.5188 10.6759C19.5188 9.78063 20.2542 9.04523 21.1495 9.04523C22.0448 9.04523 22.7802 9.78063 22.7802 10.6759Z" fill="white"/>
<path id="Vector_6" fill-rule="evenodd" clip-rule="evenodd" d="M14.499 13.1859C14.7867 12.4025 14.9466 11.5552 14.9466 10.6599C14.9466 10.6279 14.9466 10.6119 14.9466 10.58V0.795898H11.957V4.7447C10.742 3.83344 9.22325 3.30586 7.59257 3.30586C3.53186 3.30586 0.238525 6.5992 0.238525 10.6599C0.238525 14.7206 3.53186 18.0139 7.59257 18.0139C9.17529 18.0139 10.6301 17.5024 11.8451 16.655L9.99062 14.289C9.3991 14.6727 8.71166 14.9284 7.97626 15.0084L9.79878 12.978L12.9642 17.0068H17.8083L14.499 13.1859ZM11.5893 12.4025H9.09535L6.8092 14.9604C4.76286 14.5927 3.2281 12.8022 3.2281 10.6599C3.2281 8.24586 5.17852 6.29544 7.59257 6.29544C10.0066 6.29544 11.957 8.24586 11.957 10.6599C11.957 11.2834 11.8291 11.8749 11.5893 12.4025Z" fill="white"/>
</g>
<defs>
<clipPath id="clip0_1294_537">
<rect width="98.4163" height="19.712" fill="white" transform="translate(0.238525 0.795898)"/>
</clipPath>
</defs>
</svg>
