<svg width="199" height="44" viewBox="0 0 199 44" fill="none" xmlns="http://www.w3.org/2000/svg">
<g id="_&#235;&#160;&#136;&#236;&#157;&#180;&#236;&#150;&#180;_1" clip-path="url(#clip0_1301_116)">
<path id="Vector" d="M38.2537 27.092V19.6846C38.2537 16.4874 35.6414 13.8925 32.4123 13.8925C29.1831 13.8925 26.5708 16.4827 26.5708 19.6846V27.092L32.4123 31.1445L38.2537 27.092Z" fill="white"/>
<path id="Vector_2" d="M7.34965 15.1581C5.23863 13.691 2.32272 14.2023 0.843072 16.2955C-0.636571 18.3887 -0.120865 21.28 1.99016 22.7472C4.10118 24.2143 7.01709 23.7029 8.49673 21.6098C9.97638 19.5166 9.46067 16.6253 7.34965 15.1581Z" fill="white"/>
<path id="Vector_3" d="M32.4367 9.26115C35.016 9.25044 37.0981 7.16848 37.0873 4.61097C37.0765 2.05346 34.9768 -0.0111285 32.3975 -0.000415568C29.8182 0.0102974 27.7361 2.09225 27.7469 4.64977C27.7577 7.20728 29.8574 9.27187 32.4367 9.26115Z" fill="white"/>
<path id="Vector_4" d="M63.9857 16.2955C62.5061 14.2023 59.595 13.691 57.4792 15.1581C55.3682 16.6253 54.8524 19.5118 56.3321 21.6098C57.8117 23.7077 60.7228 24.2143 62.8387 22.7472C64.9497 21.28 65.4654 18.3935 63.9857 16.2955Z" fill="white"/>
<path id="Vector_5" d="M52.5054 24.2641C50.6546 21.6452 47.0158 21.0096 44.3746 22.8399L38.2584 27.0884V38.2091C38.2584 38.2091 38.2584 38.2426 38.2584 38.2569C38.2729 36.417 37.4053 34.601 35.7715 33.4636L32.4218 31.1362L29.0721 33.4636C27.4382 34.601 26.5707 36.417 26.5851 38.2569C26.5851 38.2426 26.5851 38.2234 26.5851 38.2091V27.0884L20.469 22.8399C17.8278 21.0048 14.1841 21.6404 12.3381 24.2641C10.4874 26.8829 11.1284 30.4958 13.7744 32.3262L29.0817 42.9546C29.0817 42.9546 29.1058 42.969 29.1155 42.9785C29.0817 42.9546 29.0528 42.9307 29.0191 42.9068C29.0721 42.9451 29.1299 42.9833 29.1829 43.0215C29.2745 43.0837 29.3661 43.141 29.4577 43.1936C29.4625 43.1936 29.4721 43.2031 29.4769 43.2031C29.5492 43.2461 29.6215 43.2844 29.6938 43.3226C29.7806 43.3704 29.8722 43.4134 29.9589 43.4516C30.0505 43.4946 30.1421 43.5329 30.2336 43.5711C30.3108 43.5998 30.3879 43.6285 30.465 43.6571C30.571 43.6954 30.6722 43.7288 30.7831 43.7623C30.8409 43.7766 30.8939 43.7909 30.9518 43.8053C30.971 43.8101 30.9903 43.8148 31.0096 43.8196C31.1156 43.8483 31.2265 43.8722 31.3325 43.8913C31.3759 43.9009 31.4145 43.9056 31.4578 43.9104C31.5012 43.92 31.5446 43.9248 31.588 43.9295C31.6844 43.9439 31.7808 43.9582 31.8771 43.9678C31.9253 43.9678 31.9687 43.9725 32.0169 43.9773C32.0844 43.9773 32.147 43.9869 32.2145 43.9869C32.2868 43.9869 32.3543 43.9917 32.4266 43.9917C32.4941 43.9917 32.5664 43.9917 32.6338 43.9869C32.7013 43.9869 32.764 43.9821 32.8314 43.9773C32.8796 43.9773 32.923 43.9725 32.9712 43.9678C33.0676 43.9582 33.164 43.9439 33.2604 43.9295C33.3038 43.9248 33.3472 43.9152 33.3905 43.9104C33.4339 43.9056 33.4725 43.8961 33.5158 43.8913C33.6267 43.8722 33.7327 43.8435 33.8388 43.8196C33.858 43.8148 33.8773 43.8101 33.8966 43.8053C33.9544 43.7909 34.0075 43.7766 34.0653 43.7623C34.1713 43.7336 34.2774 43.6954 34.3834 43.6571C34.4605 43.6285 34.5376 43.5998 34.6147 43.5711C34.7063 43.5329 34.7979 43.4946 34.8895 43.4516C34.981 43.4086 35.0678 43.3656 35.1545 43.3226C35.2268 43.2844 35.2991 43.2414 35.3714 43.2031C35.3762 43.2031 35.3859 43.1936 35.3907 43.1936C35.4823 43.1362 35.5787 43.0837 35.6702 43.0215C35.7281 42.9833 35.7811 42.9451 35.8341 42.9068C35.8004 42.9307 35.7715 42.9546 35.7377 42.9785C35.7474 42.969 35.7618 42.9642 35.7715 42.9546L51.0788 32.3262C53.72 30.4911 54.361 26.8829 52.515 24.2641H52.5054ZM27.631 41.5353C27.631 41.5353 27.6214 41.5161 27.6117 41.5066C27.6455 41.5544 27.684 41.6022 27.7226 41.65C27.6937 41.6117 27.6599 41.5735 27.631 41.5353ZM37.1981 41.5353C37.1692 41.5735 37.1354 41.6117 37.1065 41.65C37.1402 41.6022 37.1788 41.5544 37.2174 41.5066C37.2125 41.5161 37.2077 41.5257 37.1981 41.5353Z" fill="white"/>
<path id="Vector_6" d="M79.7556 31.3701H82.7486V29.9507H84.0162V31.3701H87.0092V32.3785H79.7604V31.3701H79.7556ZM83.3704 32.9997C85.1247 32.9997 86.3345 33.9125 86.3345 35.2889C86.3345 36.6652 85.1247 37.5636 83.3704 37.5636C81.616 37.5636 80.4207 36.6652 80.4207 35.2889C80.4207 33.9125 81.6305 32.9997 83.3704 32.9997ZM81.5919 38.3522H82.845V40.8229H89.8143V41.8599H81.5919V38.357V38.3522ZM83.3704 36.5983C84.4114 36.5983 85.1103 36.0869 85.1103 35.2889C85.1103 34.4908 84.4163 33.9794 83.3704 33.9794C82.3245 33.9794 81.6305 34.4764 81.6305 35.2889C81.6305 36.1013 82.339 36.5983 83.3704 36.5983ZM89.2841 29.9507V33.8838H91.053V34.9304H89.2841V39.069H88.0021V29.9507H89.2841Z" fill="white"/>
<path id="Vector_7" d="M101.252 30.5146V31.4274C101.252 32.3497 101.252 33.4154 100.958 34.8204H102.654V35.8527H97.7142V37.9507H101.305V42.1179H100.052V38.9734H92.6921V37.9507H96.4611V35.8527H91.5354V34.8204H99.6903C99.9988 33.4537 100.008 32.4357 100.008 31.5373H92.9524V30.5146H101.247H101.252Z" fill="white"/>
<path id="Vector_8" d="M103.787 31.4112H108.322V32.4339H105.04V38.1161C106.544 38.1017 107.681 38.0348 108.963 37.7863L109.103 38.8234C107.614 39.1149 106.361 39.1675 104.597 39.1675H103.792V31.416L103.787 31.4112ZM113.793 29.9345V42.1017H112.583V35.8126H110.997V41.4805H109.816V30.1973H110.997V34.7612H112.583V29.9345H113.793Z" fill="white"/>
<path id="Vector_9" d="M118.188 31.1789V29.8694H119.456V31.1789H122.449V32.1872H115.2V31.1789H118.193H118.188ZM118.815 32.7511C120.584 32.7511 121.779 33.6352 121.779 34.9734C121.779 36.3115 120.584 37.1669 118.815 37.1669C117.046 37.1669 115.865 36.3115 115.865 34.9734C115.865 33.6352 117.061 32.7511 118.815 32.7511ZM116.714 38.1705H124.729V42.1179H123.447V39.1932H116.714V38.1705ZM118.815 36.2111C119.856 36.2111 120.555 35.7141 120.555 34.9686C120.555 34.2231 119.861 33.726 118.815 33.726C117.769 33.726 117.075 34.1944 117.075 34.9686C117.075 35.7428 117.769 36.2111 118.815 36.2111ZM123.447 29.9459H124.729V33.2434H126.498V34.29H124.729V37.5444H123.447V29.9411V29.9459Z" fill="white"/>
<path id="Vector_10" d="M130.681 30.6819V32.2685C130.681 33.6067 131.544 34.9734 133.115 35.5804L132.445 36.5314C131.317 36.0917 130.527 35.2602 130.078 34.2566C129.635 35.3892 128.796 36.3832 127.601 36.8898L126.931 35.9101C128.56 35.2076 129.452 33.6497 129.452 32.2685V30.6819H130.676H130.681ZM133.269 37.6879C135.814 37.6879 137.4 38.5003 137.4 39.8814C137.4 41.2626 135.814 42.0893 133.269 42.0893C130.724 42.0893 129.153 41.2769 129.153 39.8814C129.153 38.486 130.739 37.6879 133.269 37.6879ZM133.269 41.1383C135.062 41.1383 136.122 40.67 136.122 39.8814C136.122 39.0929 135.067 38.6533 133.269 38.6533C131.471 38.6533 130.401 39.1073 130.401 39.8814C130.401 40.6556 131.486 41.1383 133.269 41.1383ZM133.505 30.1849H134.7V33.1383H136.117V29.9507H137.342V37.4394H136.117V34.1706H134.7V37.0523H133.505V30.1801V30.1849Z" fill="white"/>
<path id="Vector_11" d="M142.74 30.8995V41.246H140.846V30.8995H142.74Z" fill="white"/>
<path id="Vector_12" d="M151.641 32.3905H148.817V41.246H146.923V32.3905H144.041V30.8995H151.637V32.3905H151.641Z" fill="white"/>
<path id="Vector_13" d="M161.021 34.27V33.2234H158.529C157.763 35.1828 156.037 36.5066 153.257 37.2521L152.505 35.7324C155.358 35.0155 156.611 33.7443 156.847 32.1577H153.203V30.6141H158.977C158.977 30.9868 158.949 31.3453 158.91 31.6894H161.026V29.8017H162.987V36.908H161.026V35.8041H158.394V34.2748H161.026L161.021 34.27ZM158.809 37.0705C161.354 37.0705 163.065 38.0502 163.065 39.6225C163.065 41.1947 161.354 42.2031 158.809 42.2031C156.264 42.2031 154.539 41.1947 154.539 39.6225C154.539 38.0502 156.25 37.0705 158.809 37.0705ZM158.809 40.7121C160.284 40.7121 161.146 40.3536 161.146 39.6225C161.146 38.8913 160.284 38.5472 158.809 38.5472C157.334 38.5472 156.471 38.9056 156.471 39.6225C156.471 40.3393 157.334 40.7121 158.809 40.7121Z" fill="white"/>
<path id="Vector_14" d="M170.178 31.3972H172.834V29.7962H174.795V37.0794H172.834V35.6744H170.135C169.537 36.2383 168.674 36.5872 167.715 36.5872C165.836 36.5872 164.39 35.2921 164.39 33.5238C164.39 31.7556 165.836 30.4462 167.715 30.4462C168.703 30.4462 169.566 30.8046 170.178 31.3972ZM170.511 37.3136C173.166 37.3136 174.839 38.2359 174.839 39.7986C174.839 41.3614 173.171 42.2694 170.511 42.2694C167.85 42.2694 166.183 41.3566 166.183 39.7986C166.183 38.2407 167.85 37.3136 170.511 37.3136ZM167.715 34.9527C168.592 34.9527 169.205 34.4414 169.205 33.5191C169.205 32.5967 168.592 32.071 167.715 32.071C166.838 32.071 166.24 32.5824 166.24 33.5191C166.24 34.4557 166.867 34.9527 167.715 34.9527ZM170.511 40.7879C172.111 40.7879 172.916 40.4725 172.916 39.7938C172.916 39.1152 172.111 38.7998 170.511 38.7998C168.911 38.7998 168.106 39.1057 168.106 39.7938C168.106 40.482 168.911 40.7879 170.511 40.7879ZM172.834 34.126V32.9265H170.997C171.041 33.1176 171.055 33.3136 171.055 33.5191C171.055 33.7246 171.041 33.9348 170.997 34.126H172.834Z" fill="white"/>
<path id="Vector_15" d="M179.205 31.1789V29.8694H180.473V31.1789H183.466V32.1872H176.217V31.1789H179.21H179.205ZM179.832 32.7511C181.601 32.7511 182.796 33.6352 182.796 34.9734C182.796 36.3115 181.601 37.1669 179.832 37.1669C178.063 37.1669 176.882 36.3115 176.882 34.9734C176.882 33.6352 178.077 32.7511 179.832 32.7511ZM177.73 38.1705H185.746V42.1179H184.464V39.1932H177.73V38.1705ZM179.832 36.2111C180.873 36.2111 181.572 35.7141 181.572 34.9686C181.572 34.2231 180.878 33.726 179.832 33.726C178.786 33.726 178.092 34.1944 178.092 34.9686C178.092 35.7428 178.786 36.2111 179.832 36.2111ZM184.464 29.9459H185.746V33.2434H187.514V34.29H185.746V37.5444H184.464V29.9411V29.9459Z" fill="white"/>
<path id="Vector_16" d="M191.394 38.7775V37.5206C189.977 37.339 189.057 36.5123 189.057 35.3128C189.057 33.946 190.252 33.0523 192.021 33.0523C193.79 33.0523 195 33.9507 195 35.3128C195 36.4979 194.079 37.3247 192.677 37.5206V38.7202C193.819 38.6628 194.956 38.5816 196.031 38.443L196.113 39.3653C193.399 39.8337 190.464 39.848 188.223 39.848L188.054 38.8014C189.057 38.8014 190.199 38.8014 191.394 38.7727V38.7775ZM188.305 31.3988H191.394V29.9651H192.677V31.3988H195.751V32.4071H188.31V31.3988H188.305ZM192.021 36.5983C193.077 36.5983 193.804 36.1013 193.804 35.3175C193.804 34.5338 193.081 34.0224 192.021 34.0224C190.961 34.0224 190.252 34.5194 190.252 35.3175C190.252 36.1156 190.99 36.5983 192.021 36.5983ZM198.046 29.9507V42.118H196.764V29.9507H198.046Z" fill="white"/>
<path id="Vector_17" d="M88.4022 12.775L96.2101 4.43565L96.3306 4.30662V3.58022H91.4049L91.2699 3.72837L85.1297 10.5002V3.57544H80.7871V22.548H85.1297V15.2218L91.9784 22.4094L92.1134 22.548H97.0054V21.7116L96.88 21.5826L88.3974 12.775H88.4022Z" fill="white"/>
<path id="Vector_18" d="M110.693 3.60254H110.24V14.403C110.24 17.2847 108.78 18.9383 106.24 18.9383C103.531 18.9383 101.979 17.2847 101.979 14.403V3.60254H97.6658V14.403C97.6658 19.5834 101.02 22.9335 106.216 22.9335C111.412 22.9335 114.559 19.6647 114.559 14.403V3.60254H110.693ZM104.751 19.2059C105.209 19.3254 105.71 19.3875 106.24 19.3875C107.835 19.3875 109.045 18.7901 109.797 17.7196C109.045 18.7949 107.835 19.3875 106.24 19.3875C105.71 19.3875 105.209 19.3254 104.751 19.2059C104.293 19.0864 103.874 18.9048 103.502 18.6659C103.874 18.9048 104.293 19.0816 104.751 19.2059ZM98.1188 14.403C98.1188 15.0816 98.1767 15.722 98.2875 16.3146C98.1767 15.722 98.1188 15.0864 98.1188 14.403ZM114.106 14.403C114.106 19.7507 110.799 22.4843 106.216 22.4843C104.577 22.4843 103.025 22.1115 101.729 21.3612C103.025 22.1115 104.572 22.4795 106.216 22.4795C110.799 22.4795 114.106 19.7411 114.106 14.3982V14.403Z" fill="white"/>
<path id="Vector_19" d="M125.384 10.6058C122.748 10.2952 121.716 9.78383 121.716 8.78025C121.716 7.55683 122.96 6.82565 125.042 6.82565C126.893 6.82565 128.449 7.75277 128.975 8.62254L129.192 8.98097L129.568 8.78981L132.3 7.39435L132.696 7.19363L132.498 6.79698C131.255 4.28324 128.637 2.95468 124.931 2.95468C121.196 2.98336 117.427 4.76113 117.427 8.67033C117.427 13.1004 121.249 14.147 124.989 14.5915C126.632 14.7683 128.811 15.1841 128.811 16.8041C128.811 18.9021 125.948 19.0646 125.071 19.0646C122.777 19.0646 121.018 18.0992 120.362 16.4792L120.174 16.0204L119.731 16.245L116.868 17.7169L116.501 17.9033L116.656 18.2808C117.957 21.4589 120.695 23.0025 125.018 23.0025C130.021 23.0025 133.125 20.6225 133.125 16.7946C133.125 12.1733 129.404 11.0837 125.384 10.5915V10.6058ZM119.225 5.3824C118.95 5.6548 118.709 5.95588 118.506 6.2904C118.704 5.95588 118.95 5.6548 119.225 5.3824ZM118.044 7.38479C117.938 7.78144 117.88 8.21155 117.88 8.67989C117.88 8.21633 117.938 7.78622 118.044 7.38479ZM125.914 14.2713C126.194 14.3191 126.464 14.3716 126.719 14.4386C126.464 14.3764 126.194 14.3191 125.914 14.2713ZM121.793 22.2044C121.403 22.104 121.027 21.9798 120.675 21.8316C119.432 21.3107 118.4 20.484 117.649 19.2701C117.432 18.9212 117.239 18.5437 117.07 18.1327L119.933 16.6608C120.738 18.6488 122.849 19.5282 125.061 19.5282C127.273 19.5282 129.254 18.7779 129.254 16.8185C129.254 18.7826 127.22 19.5282 125.061 19.5282C122.902 19.5282 120.738 18.6488 119.933 16.6608L117.07 18.1327C117.239 18.5437 117.432 18.926 117.649 19.2701C118.4 20.484 119.427 21.3107 120.675 21.8316C121.032 21.9798 121.403 22.104 121.793 22.2044ZM127.924 22.2378C128.377 22.1231 128.811 21.9845 129.221 21.8125C128.811 21.9845 128.377 22.1279 127.924 22.2378ZM132.672 16.8137C132.672 15.466 132.324 14.4433 131.736 13.6596C132.329 14.4433 132.672 15.466 132.672 16.8137Z" fill="white"/>
<path id="Vector_20" d="M136.001 3.57544H135.548V4.02466V22.0987V22.548H136.001H139.414H139.867V22.0987V4.02466V3.57544H139.414H136.001Z" fill="white"/>
<path id="Vector_21" d="M143.057 3.57544H142.604V4.02466V7.12144V7.57066H143.057H148.388V22.0987V22.548H148.841H152.277H152.73V22.0987V7.57066H158.056H158.509V7.12144V4.02466V3.57544H158.056H143.057Z" fill="white"/>
<path id="Vector_22" d="M176.183 3.60254H175.952L175.817 3.78892L170.481 11.0625L165.146 3.78892L165.011 3.60254H160.37V22.5751H164.712V10.3552L169.701 17.1223L169.835 17.3039H170.968L171.103 17.1223L176.226 10.3504V22.5703H180.569V3.60254H176.183Z" fill="white"/>
<path id="Vector_23" d="M191.259 10.6058C188.623 10.2952 187.592 9.78383 187.592 8.78025C187.592 7.55683 188.835 6.82565 190.917 6.82565C192.768 6.82565 194.325 7.75277 194.85 8.62254L195.067 8.98097L195.443 8.78981L198.176 7.39435L198.571 7.19363L198.373 6.79698C197.13 4.28324 194.513 2.95468 190.806 2.95468C187.071 2.98336 183.302 4.76113 183.302 8.67033C183.302 13.1004 187.124 14.147 190.864 14.5915C192.508 14.7683 194.686 15.1841 194.686 16.8041C194.686 18.9021 191.823 19.0646 190.946 19.0646C188.652 19.0646 186.893 18.0992 186.237 16.4792L186.049 16.0204L185.606 16.245L182.743 17.7169L182.377 17.9033L182.531 18.2808C183.832 21.4589 186.57 23.0025 190.893 23.0025C195.896 23.0025 199 20.6225 199 16.7946C199 12.1733 195.279 11.0837 191.259 10.5915V10.6058ZM198.547 16.8089C198.547 15.4613 198.2 14.4386 197.612 13.6548C198.205 14.4386 198.547 15.4613 198.547 16.8089ZM197.973 6.99769C197.539 6.12792 196.956 5.44931 196.272 4.9284C196.956 5.44931 197.539 6.12314 197.973 6.99769ZM185.1 5.3824C184.825 5.6548 184.584 5.95588 184.382 6.2904C184.579 5.95588 184.825 5.6548 185.1 5.3824ZM183.919 7.38479C183.813 7.78144 183.755 8.21155 183.755 8.67989C183.755 8.21633 183.813 7.78622 183.919 7.38479ZM191.79 14.2713C192.069 14.3191 192.339 14.3716 192.594 14.4386C192.339 14.3764 192.069 14.3191 191.79 14.2713ZM187.669 22.2044C187.278 22.104 186.902 21.9798 186.551 21.8316C185.307 21.3107 184.28 20.484 183.524 19.2701C183.307 18.9212 183.114 18.5437 182.945 18.1327L185.808 16.6608C186.613 18.6488 188.724 19.5282 190.936 19.5282C193.149 19.5282 195.13 18.7779 195.13 16.8185C195.13 18.7826 193.096 19.5282 190.936 19.5282C188.777 19.5282 186.613 18.6488 185.808 16.6608L182.945 18.1327C183.114 18.5437 183.307 18.926 183.524 19.2701C184.276 20.484 185.302 21.3107 186.551 21.8316C186.907 21.9798 187.278 22.104 187.669 22.2044ZM193.799 22.2378C194.252 22.1231 194.686 21.9845 195.096 21.8125C194.686 21.9845 194.252 22.1279 193.799 22.2378Z" fill="white"/>
</g>
<defs>
<clipPath id="clip0_1301_116">
<rect width="199" height="44" fill="white"/>
</clipPath>
</defs>
</svg>
