<svg width="121" height="33" viewBox="0 0 121 33" fill="none" xmlns="http://www.w3.org/2000/svg">
<g id="_&#235;&#160;&#136;&#236;&#157;&#180;&#236;&#150;&#180;_3" clip-path="url(#clip0_1294_545)">
<path id="Vector" d="M18.6191 16.3079C18.6191 16.3079 18.5042 16.5251 18.2254 16.759C17.9301 17.0431 17.6512 17.16 17.0442 17.3772C16.3716 17.6279 16.1256 17.9286 15.9287 18.3463C15.8139 18.5803 15.7811 18.8643 15.8139 19.0147L15.8959 19.1651C15.8959 19.1651 16.1584 18.4299 16.8474 18.3798C17.1591 18.3798 17.5528 18.48 17.7004 18.9646L17.7332 19.1818C17.8152 20.201 16.8474 21.1367 15.6662 21.1033C14.7968 21.0699 13.8289 20.5018 13.6813 19.4324C13.5501 18.5468 13.911 17.6279 14.5179 17.2937C14.6 17.3104 14.7148 17.3438 14.8296 17.3772C15.0593 17.4274 15.2725 17.4274 15.4858 17.3772C15.6991 17.3438 15.9287 17.2101 15.9123 17.0263C15.8631 16.7423 15.4202 16.6922 15.1741 16.6922C14.9116 16.6922 14.7148 16.7423 14.6328 16.7757C14.4359 16.6253 14.3375 16.4582 14.2555 16.1575C14.0914 15.5894 14.4031 14.637 15.3218 14.5367C15.8959 14.4866 16.2568 14.7205 16.5029 15.0213C16.7489 15.3387 16.8146 15.439 16.8802 15.4223L16.9458 15.2719V14.5033C16.8474 14.1691 16.0271 13.8015 15.1905 13.8517C14.9116 13.8517 14.7476 13.8684 14.3211 14.0187C13.3368 14.3696 13.0251 15.2552 13.1235 15.9236C13.2056 16.6086 13.7797 16.9428 13.7797 16.9428C12.779 17.3271 11.9916 18.4299 12.3361 19.8501C12.6806 21.2704 14.2719 21.7884 15.3218 21.8051C16.5029 21.8385 17.3395 21.3706 17.8481 20.8025C18.2746 20.3347 18.537 19.6496 18.4386 18.9813C18.4058 18.7641 18.2254 18.2461 17.8481 18.0122C17.8481 18.0122 18.0613 17.9286 18.209 17.8284C18.537 17.5777 18.6847 17.2603 18.7503 16.9428C18.7831 16.6755 18.7503 16.4081 18.7011 16.3246L18.6519 16.2912" fill="white"/>
<path id="Vector_2" d="M21.9328 21.1033H24.8529C25.7879 21.1033 26.7558 20.602 26.8214 19.3322C26.9034 18.0122 26.116 17.5109 25.1481 17.5109H23.8358C23.4749 17.5109 23.2944 17.5109 23.0648 17.9119L22.6382 18.7306H24.3607C24.7708 18.7306 24.9513 18.998 24.9513 19.3322C24.9513 19.6329 24.7708 19.8836 24.3771 19.8836H22.8023C22.3594 19.8836 21.9821 19.7332 21.7196 19.399C21.5227 19.1317 21.3259 18.7975 21.3259 18.1793C21.3259 17.5276 21.5227 17.2436 21.7196 16.9929C21.9492 16.6922 22.3101 16.5919 22.6546 16.5585H22.8187H25.6403C25.9848 16.5585 26.1816 16.5585 26.3949 16.1575L26.8378 15.3387H21.9985C20.4892 15.3387 19.3901 16.5752 19.3901 18.2294C19.3901 19.6998 20.276 20.8694 21.5555 21.0699C21.5555 21.0699 21.654 21.0866 21.9328 21.0866" fill="white"/>
<path id="Vector_3" d="M7.9234 17.0765C7.9234 16.5418 7.49688 16.5752 7.49688 16.5752H5.24946L3.92069 17.8618L6.4962 21.12H4.74092C4.08473 21.12 3.83867 20.8026 3.47777 20.318L2.26383 18.6638L2.05057 18.597L1.95214 18.7307V21.1367H0V15.3722H1.95214V17.8117L3.9535 15.7899C4.15035 15.6061 4.29799 15.5059 4.49485 15.439C4.62608 15.4056 4.79013 15.3722 4.98698 15.3722H12.5495L12.123 16.2076C11.9097 16.5752 11.7293 16.6086 11.4012 16.6086H9.80992V21.1367H7.907V17.1099L7.9234 17.0765Z" fill="white"/>
<path id="Vector_4" d="M34.023 14.9712V15.8233C34.023 16.4248 34.023 16.9094 34.0558 17.2937C34.0722 17.678 34.1542 18.079 34.3019 18.4967C34.5479 19.2653 35.0073 19.9671 35.6799 20.602C36.3524 21.2203 37.2055 21.755 38.239 22.2228L36.4837 24.8795C35.5978 24.4618 34.8268 23.9939 34.187 23.476C33.5309 22.9413 32.9731 22.2562 32.4974 21.3874C32.0708 22.2228 31.5459 22.9413 30.9061 23.5261C30.2664 24.1109 29.5446 24.6289 28.7571 25.08L26.8706 22.5737C27.9369 22.0557 28.7571 21.4709 29.3477 20.836C29.9383 20.201 30.3976 19.4491 30.6929 18.5803C30.8405 18.1626 30.9225 17.7448 30.9389 17.3104C30.9717 16.876 30.9717 16.3914 30.9717 15.8233V14.9712H34.023ZM37.5172 28.4552C37.5172 27.8537 37.632 27.2689 37.8781 26.7008C38.1077 26.1494 38.4522 25.6648 38.8623 25.2471C39.2889 24.8294 39.7482 24.5119 40.3059 24.2613C40.8637 24.0274 41.4379 23.9104 42.0776 23.9104C42.7174 23.9104 43.2916 24.0274 43.8329 24.2613C44.3907 24.5119 44.8664 24.8294 45.2929 25.2471C45.703 25.6648 46.0311 26.1327 46.2608 26.7008C46.4905 27.2689 46.6217 27.8537 46.6217 28.4552C46.6217 29.0902 46.5069 29.675 46.2608 30.2264C46.0147 30.7777 45.703 31.2623 45.2929 31.68C44.8664 32.0977 44.3907 32.4152 43.8329 32.6658C43.2752 32.9165 42.701 33.0334 42.0776 33.0334C41.4543 33.0334 40.8637 32.9165 40.3059 32.6658C39.7482 32.4152 39.2889 32.0977 38.8623 31.68C38.4522 31.2623 38.1241 30.7777 37.8781 30.2264C37.632 29.675 37.5172 29.0902 37.5172 28.4552ZM39.6334 11.2117C40.8801 11.4623 41.7331 11.9469 42.1925 12.6988C42.6846 13.4339 42.9143 14.4365 42.9143 15.6896V19.0481H46.1952V21.8719H39.8958V15.6896C39.8958 15.2218 39.7974 14.8542 39.5841 14.6036C39.3709 14.3362 39.01 14.1357 38.5014 13.9686L39.6334 11.2284V11.2117ZM40.3552 28.4552C40.3552 28.9398 40.5192 29.3575 40.8309 29.675C41.1426 30.0091 41.5691 30.1762 42.0612 30.1762C42.5534 30.1762 42.9799 30.0091 43.308 29.675C43.6197 29.3408 43.7837 28.9398 43.7837 28.4552C43.7837 27.9707 43.6197 27.5696 43.308 27.2355C42.9963 26.9013 42.5698 26.7342 42.0612 26.7342C41.5527 26.7342 41.1426 26.9013 40.8309 27.2355C40.5192 27.5696 40.3552 27.9707 40.3552 28.4552Z" fill="white"/>
<path id="Vector_5" d="M54.3811 14.9712V15.8233C54.3811 16.4248 54.381 16.9094 54.4139 17.2937C54.4139 17.678 54.5123 18.079 54.6599 18.4967C54.906 19.2653 55.3653 19.9671 56.0379 20.602C56.7105 21.2203 57.5635 21.755 58.597 22.2228L56.8581 24.8795C55.9887 24.4618 55.2177 23.9939 54.5615 23.476C53.9053 22.9413 53.3476 22.2562 52.8718 21.3874C52.4617 22.2228 51.9204 22.9413 51.2806 23.5261C50.6408 24.1109 49.919 24.6289 49.1316 25.08L47.2615 22.5737C48.3114 22.0557 49.1316 21.4709 49.7222 20.836C50.3127 20.201 50.7556 19.4491 51.0509 18.5803C51.1986 18.1626 51.2806 17.7448 51.3134 17.3104C51.3462 16.876 51.3462 16.3914 51.3462 15.8233V14.9712H54.4139H54.3811ZM57.8752 28.4552C57.8752 27.8537 58.0065 27.2689 58.2361 26.7008C58.4658 26.1494 58.7939 25.6648 59.2204 25.2471C59.6305 24.8294 60.1062 24.5119 60.664 24.2613C61.2053 24.0274 61.8123 23.9104 62.4357 23.9104C63.0591 23.9104 63.6332 24.0274 64.191 24.2613C64.7487 24.5119 65.2409 24.8294 65.651 25.2471C66.0611 25.6648 66.3892 26.1327 66.6189 26.7008C66.8649 27.2689 66.9798 27.8537 66.9798 28.4552C66.9798 29.0902 66.8485 29.675 66.6189 30.2264C66.3892 30.7777 66.0611 31.2623 65.651 31.68C65.2409 32.0977 64.7487 32.4152 64.191 32.6658C63.6332 32.9165 63.0591 33.0334 62.4357 33.0334C61.8123 33.0334 61.2053 32.9165 60.664 32.6658C60.1226 32.4152 59.6469 32.0977 59.2204 31.68C58.7939 31.2623 58.4822 30.7777 58.2361 30.2264C58.0065 29.675 57.8752 29.0902 57.8752 28.4552ZM59.9914 11.2117C61.2218 11.4623 62.0912 11.9469 62.5505 12.6988C63.0263 13.4339 63.2723 14.4365 63.2723 15.6896V19.0481H66.5532V21.8719H60.2539V15.6896C60.2539 15.2218 60.1555 14.8542 59.9422 14.6036C59.7289 14.3362 59.368 14.1357 58.8595 13.9686L59.9914 11.2284V11.2117ZM60.7132 28.4552C60.7132 28.9398 60.8773 29.3575 61.1889 29.675C61.5006 30.0091 61.9107 30.1762 62.4193 30.1762C62.9278 30.1762 63.3543 30.0091 63.666 29.675C63.9941 29.3408 64.1418 28.9398 64.1418 28.4552C64.1418 27.9707 63.9941 27.5696 63.666 27.2355C63.3543 26.9013 62.9442 26.7342 62.4193 26.7342C61.8943 26.7342 61.5006 26.9013 61.1889 27.2355C60.8773 27.5696 60.7132 27.9707 60.7132 28.4552Z" fill="white"/>
<path id="Vector_6" d="M100.051 24.8962H99.0671L95.2612 15.4557L97.4266 14.7707L99.4936 20.2679C99.5264 20.3514 99.5756 20.4684 99.6248 20.6355C99.6741 20.7859 99.7233 20.9529 99.7725 21.12C99.8217 21.2871 99.8873 21.4542 99.9365 21.6046C99.9857 21.755 100.019 21.8719 100.035 21.9555C100.035 21.8719 100.084 21.755 100.133 21.6046C100.183 21.4542 100.232 21.2871 100.297 21.12C100.347 20.9529 100.396 20.7859 100.445 20.6355C100.494 20.4684 100.527 20.3514 100.576 20.2679L102.643 14.7707L104.792 15.4557L101.003 24.8962H100.051Z" fill="white"/>
<path id="Vector_7" d="M77.8887 14.8876V24.8795H75.5428V24.1444C75.2311 24.4117 74.8702 24.6289 74.4437 24.7626C74.05 24.8962 73.6071 24.9631 73.1478 24.9631C72.1307 24.9631 71.294 24.6456 70.6215 24.0107C70.2113 23.593 69.9489 23.1418 69.834 22.6573C69.6864 22.1727 69.6208 21.638 69.6208 21.0532V18.597C69.6208 18.2962 69.6044 18.0623 69.5552 17.8618C69.5059 17.6613 69.4403 17.5109 69.3583 17.3606C69.2599 17.2269 69.1286 17.0932 68.9974 16.993C68.8334 16.8927 68.6693 16.7757 68.4561 16.6421L69.67 14.6203C70.441 14.9712 71.0152 15.4056 71.3925 15.957C71.7698 16.5084 71.9502 17.1935 71.9502 18.0456V20.7859C71.9502 21.5211 72.1143 22.039 72.426 22.3732C72.7376 22.7074 73.1642 22.8745 73.6727 22.8745C74.1812 22.8745 74.6242 22.6907 75.0015 22.3565C75.3624 22.0223 75.5428 21.4876 75.5428 20.7692V14.8375H77.8887V14.8876Z" fill="white"/>
<path id="Vector_8" d="M91.1765 11.7965C91.1765 11.3788 91.3078 11.0279 91.5866 10.7271C91.8491 10.4431 92.1936 10.3094 92.6037 10.3094C93.0138 10.3094 93.3747 10.4598 93.6536 10.7271C93.9325 11.0112 94.0801 11.3621 94.0801 11.7965C94.0801 12.2309 93.9325 12.5651 93.6536 12.8492C93.3747 13.1332 93.0302 13.2669 92.6037 13.2669C92.1772 13.2669 91.8491 13.1332 91.5866 12.8492C91.3078 12.5651 91.1765 12.2142 91.1765 11.7965ZM93.8012 24.8963H91.4062V14.9044H93.8012V24.8963Z" fill="white"/>
<path id="Vector_9" d="M82.515 16.1074C82.597 16.0071 82.7118 15.8902 82.8759 15.7398C83.0399 15.5894 83.1383 15.5059 83.1712 15.4724C83.7781 15.0046 84.4999 14.754 85.353 14.754C85.8615 14.754 86.3208 14.8375 86.7309 14.9879C87.1411 15.155 87.5184 15.3889 87.8464 15.7231C88.273 16.1408 88.5518 16.5752 88.6995 17.0598C88.8471 17.5276 88.9292 18.0623 88.9292 18.6471V24.8628H86.5669V18.9312C86.5669 18.196 86.3864 17.678 86.0584 17.3772C85.7303 17.0598 85.3037 16.9094 84.7952 16.9094C84.2867 16.9094 83.8437 17.0598 83.4992 17.3772C83.1548 17.678 82.9743 18.2127 82.9743 18.9312V24.8628H80.6284V18.6304C80.6284 18.0456 80.5464 17.6112 80.3824 17.3605C80.2183 17.0932 79.9395 16.8259 79.5129 16.5585L80.7269 14.5367C81.137 14.7205 81.4979 14.9378 81.7932 15.2051C82.0885 15.4557 82.3345 15.7732 82.515 16.0907" fill="white"/>
<path id="Vector_10" d="M106.761 22.8745H104.776V24.8795H106.761V22.8745Z" fill="white"/>
<path id="Vector_11" d="M96.5245 1.13623C95.2941 0.317499 94.4083 3.05176e-05 93.7685 3.05176e-05C93.1779 3.05176e-05 92.7842 0.284081 92.5054 0.701803C91.9476 1.57066 92.1281 2.67345 94.5067 4.26079C96.0816 5.29674 100.117 6.51649 102.529 7.45218C100.708 5.56408 98.0829 2.18889 96.5245 1.13623Z" fill="white"/>
<path id="Vector_12" d="M110.616 10.56C109.041 9.50737 104.973 8.40458 102.545 7.45218C104.349 9.35699 107.023 12.6486 108.598 13.6846C109.829 14.5033 110.698 14.8208 111.354 14.8208C111.961 14.8208 112.338 14.5367 112.601 14.119C113.159 13.2669 112.978 12.1474 110.616 10.5433" fill="white"/>
<path id="Vector_13" d="M119.737 17.8284C118.621 16.2912 115.193 13.7681 113.24 12.0304C114.29 14.4532 115.668 18.4968 116.784 20.034C118.457 22.3732 119.556 22.4902 120.376 21.8887C121.197 21.2704 121.426 20.1676 119.753 17.8284" fill="white"/>
<path id="Vector_14" d="M113.24 12.0137C112.207 9.60763 110.895 5.49725 109.796 3.96004C108.106 1.6208 107.007 1.50384 106.187 2.12206C105.366 2.72358 105.137 3.84308 106.826 6.16561C107.925 7.70282 111.305 10.276 113.24 12.0137Z" fill="white"/>
</g>
<defs>
<clipPath id="clip0_1294_545">
<rect width="121" height="33" fill="white"/>
</clipPath>
</defs>
</svg>
